<?xml version="1.0" standalone="no"?>
<!DOCTYPE svg PUBLIC "-//W3C//DTD SVG 20010904//EN"
 "http://www.w3.org/TR/2001/REC-SVG-20010904/DTD/svg10.dtd">
<svg version="1.0" xmlns="http://www.w3.org/2000/svg"
 width="240.000000pt" height="240.000000pt" viewBox="0 0 240.000000 240.000000"
 preserveAspectRatio="xMidYMid meet">

<g transform="translate(0.000000,240.000000) scale(0.100000,-0.100000)"
fill="#000000" stroke="none">
<path d="M400 2391 c0 -23 41 -101 83 -158 71 -96 159 -159 287 -206 51 -19
87 -21 460 -27 312 -6 426 -11 495 -24 276 -51 442 -126 588 -265 90 -86 89
-90 30 91 -43 133 -104 237 -190 328 -111 118 -234 189 -413 238 l-95 26 -622
4 c-399 2 -623 0 -623 -7z"/>
<path d="M1870 1857 c0 -3 18 -36 40 -73 68 -117 97 -247 86 -389 -20 -258
-150 -429 -367 -480 -45 -10 -120 -15 -255 -15 l-192 0 -3 128 c-4 120 -6 131
-37 194 -59 120 -168 197 -293 206 l-69 5 0 -473 0 -472 418 5 c447 5 481 8
632 63 121 43 200 94 296 189 135 134 207 272 247 472 19 97 19 106 5 182 -9
44 -27 104 -40 133 -32 69 -111 155 -191 207 -71 46 -277 134 -277 118z"/>
</g>
</svg>
